# xmcd CD database file
#
# Track frame offsets:
#	150
#	20609
#	39167
#
# Disc length: 750 seconds
#
# Revision: 0
# Processed by: cddbd v1.5.1PL0 Copyright (c) Steve Scherf et al.
# Submitted via: CDex 1.51
#
DISCID=1802ec03
DTITLE=田村ゆかり - 眠れぬ夜につかまえて
DYEAR=1900
DGENRE=Acapella
TTITLE0=眠れぬ夜につかまえて
TTITLE1=君へ
TTITLE2=お散歩しようよ
EXTD=
EXTT0=
EXTT1=
EXTT2=
PLAYORDER=
